<?xml version="1.0" encoding="UTF-8" standalone="no"?>
<!DOCTYPE svg PUBLIC "-//W3C//DTD SVG 20010904//EN" "http://www.w3.org/TR/2001/REC-SVG-20010904/DTD/svg10.dtd">
<svg version="1.0" xmlns="http://www.w3.org/2000/svg" width="769.000000pt" height="769.000000pt" viewBox="0 0 769.000000 769.000000" preserveAspectRatio="xMidYMid meet">

<g transform="translate(0.000000,769.000000) scale(0.100000,-0.100000)" fill="#d20d66" stroke="none">
<path d="M900 4804 c-41 -18 -84 -56 -111 -100 -10 -17 -39 -118 -64 -224 -25 -106 -48 -197 -51 -202 -3 -4 -11 -8 -17 -8 -7 0 -46 -16 -86 -35 -96 -46 -177 -128 -225 -227 -35 -73 -179 -591 -196 -708 -22 -156 58 -317 198 -393 95 -51 145 -57 543 -57 330 0 373 2 442 19 42 11 92 28 113 39 37 19 37 19 78 -4 90 -50 130 -54 563 -54 380 0 407 1 464 20 l61 21 54 -21 c49 -18 78 -20 271 -20 173 0 227 3 269 17 49 15 56 15 111 0 47 -13 104 -17 267 -17 234 0 274 7 372 66 57 34 60 35 84 19 51 -34 129 -65 184 -76 34 -6 160 -9 309 -7 213 3 260 6 301 22 47 17 51 17 105 -1 51 -16 95 -18 481 -18 383 0 430 2 476 18 51 18 53 17 115 -3 58 -20 80 -21 298 -18 233 3 237 3 291 30 30 15 62 33 70 40 32 26 71 87 86 132 l16 46 217 0 c253 0 281 6 392 78 140 92 196 186 170 288 -6 24 -20 104 -31 176 -23 149 -42 197 -112 273 -55 61 -122 99 -209 120 -98 23 -1041 22 -1098 -1 -37 -14 -46 -14 -110 0 -57 13 -134 16 -413 16 -222 -1 -368 -5 -413 -13 -45 -8 -83 -9 -106 -3 -32 8 -37 14 -48 57 -28 108 -127 187 -246 196 -60 5 -529 -64 -605 -89 -76 -24 -108 -54 -174 -161 -20 -32 -33 -32 -131 -4 -40 11 -171 16 -650 21 -330 3 -737 9 -905 14 l-305 7 355 6 c195 4 491 7 658 8 245 1 302 4 302 14 0 11 -77 15 -407 20 -223 4 -526 7 -671 7 -146 0 -263 3 -260 6 4 3 307 10 674 15 367 5 672 13 676 17 12 12 -306 22 -721 23 -185 1 -388 5 -451 9 -105 6 -98 7 95 8 745 6 1095 16 1095 29 0 10 -38 13 -188 13 -104 0 -400 3 -658 8 -424 6 -450 8 -269 13 110 4 371 7 580 9 209 1 418 5 465 8 l84 7 29 115 c49 200 28 298 -81 375 l-44 30 -1161 2 c-1022 2 -1166 1 -1197 -13z m244 -108 c34 -14 76 -59 76 -82 0 -24 -50 -16 -72 11 -39 50 -137 24 -173 -45 -53 -102 43 -180 139 -115 35 24 86 34 86 17 0 -11 -60 -67 -87 -81 -12 -6 -47 -11 -78 -11 -51 0 -60 3 -90 33 -42 42 -52 78 -36 135 18 70 59 113 130 138 47 17 65 17 105 0z m344 -6 c31 -14 47 -29 57 -54 50 -119 -43 -246 -178 -246 -51 0 -61 4 -92 33 -103 95 -6 279 150 286 11 0 39 -8 63 -19z m1609 -6 c38 -24 57 -63 56 -115 -1 -95 -74 -170 -172 -177 -98 -7 -151 38 -151 128 0 132 162 232 267 164z m-1378 -91 c17 -71 28 -99 36 -93 6 5 37 52 70 105 55 89 61 95 92 95 20 0 33 -5 32 -12 0 -7 -12 -76 -27 -153 -27 -139 -27 -140 -56 -143 -25 -3 -28 -1 -23 20 12 51 28 150 24 154 -2 2 -28 -35 -59 -84 -77 -122 -89 -121 -119 2 -12 53 -25 93 -28 90 -3 -3 -13 -45 -21 -92 -15 -84 -16 -87 -44 -90 -27 -3 -28 -2 -23 25 3 15 16 86 29 156 l23 128 34 -3 34 -3 26 -102z m445 86 c19 -15 26 -30 26 -54 0 -73 -38 -112 -120 -122 -46 -5 -49 -7 -55 -42 -11 -63 -15 -71 -41 -71 -30 0 -30 1 2 172 l26 138 68 0 c53 0 73 -4 94 -21z m126 3 c0 -9 -9 -64 -20 -122 -11 -58 -20 -108 -20 -112 0 -5 24 -8 54 -8 51 0 53 -1 48 -25 -4 -24 -7 -25 -89 -25 -76 0 -84 2 -79 18 3 9 14 71 26 137 12 66 23 128 26 138 7 23 54 23 54 -1z m320 -7 c0 -24 -2 -25 -65 -25 -62 0 -65 -1 -71 -27 -3 -16 -7 -34 -10 -40 -2 -10 14 -13 62 -13 56 0 65 -2 60 -16 -3 -9 -6 -20 -6 -25 0 -5 -29 -9 -65 -9 -55 0 -65 -3 -65 -17 0 -10 -3 -28 -6 -40 -6 -22 -4 -23 55 -23 58 0 61 -1 61 -25 0 -25 0 -25 -94 -25 -84 0 -94 2 -90 18 6 29 54 282 54 287 0 3 41 5 90 5 89 0 90 0 90 -25z m204 -7 c-37 -201 -44 -223 -74 -250 -55 -51 -150 -27 -150 37 0 21 5 25 29 25 20 0 30 -6 34 -20 6 -23 39 -27 55 -7 6 7 20 65 32 130 l22 117 29 0 c27 0 28 -2 23 -32z m-1399 -487 c129 -7 145 -10 194 -36 70 -39 117 -95 140 -170 15 -47 23 -59 38 -58 10 2 47 7 83 13 90 13 596 13 760 -2 107 -9 153 -8 225 2 65 9 207 12 515 11 390 -2 429 -4 480 -22 66 -23 111 -23 170 -1 39 15 49 25 75 77 46 91 58 96 322 139 359 57 376 58 433 9 43 -36 61 -75 63 -141 l2 -57 55 -6 c30 -3 71 -12 90 -19 29 -10 43 -10 75 1 28 9 145 14 400 16 316 4 371 2 448 -13 83 -17 90 -17 136 0 43 15 94 17 552 14 l504 -3 56 -26 c64 -30 120 -84 148 -143 11 -22 24 -81 30 -131 6 -49 18 -120 27 -157 15 -64 15 -69 -3 -105 -20 -43 -143 -134 -204 -152 -47 -14 -458 -15 -495 -1 -35 14 -51 0 -59 -53 -17 -105 -69 -176 -143 -197 -20 -5 -131 -10 -247 -10 -182 0 -215 3 -250 19 -22 10 -46 25 -53 34 -12 14 -20 12 -80 -16 l-67 -32 -420 0 c-414 0 -421 0 -469 23 -27 12 -56 22 -65 22 -10 0 -37 -10 -62 -22 -43 -22 -53 -23 -324 -23 -276 0 -281 0 -329 24 -27 14 -69 44 -94 67 -25 24 -50 40 -56 37 -6 -4 -31 -22 -55 -41 -24 -18 -67 -45 -95 -60 -50 -26 -55 -27 -263 -30 -190 -3 -218 -1 -278 17 l-66 21 -57 -20 c-49 -18 -82 -20 -268 -20 -204 0 -212 1 -245 23 -56 38 -66 39 -127 9 l-57 -27 -430 0 -430 0 -45 24 c-25 13 -58 34 -73 47 -33 27 -50 30 -66 10 -20 -24 -115 -66 -175 -77 -35 -6 -199 -9 -429 -7 l-372 3 -55 26 c-76 35 -114 70 -144 131 -36 72 -35 153 4 300 150 564 144 548 222 634 32 34 73 65 115 86 61 30 75 33 202 38 197 10 425 10 586 1z"/>
<path d="M1353 4630 c-63 -38 -83 -121 -38 -165 64 -65 185 6 185 108 0 69 -78 99 -147 57z"/>
<path d="M2939 4623 c-86 -73 -64 -183 37 -183 57 0 124 73 124 134 0 71 -99 101 -161 49z"/>
<path d="M2045 4623 c-14 -66 -16 -63 26 -63 30 0 42 5 56 26 22 35 7 58 -40 62 -33 3 -37 0 -42 -25z"/>
<path d="M747 4009 c-72 -17 -132 -62 -164 -122 -26 -52 -163 -589 -163 -642 0 -58 16 -87 63 -113 29 -15 69 -17 402 -17 369 0 370 0 423 24 89 40 122 88 160 232 36 138 37 149 20 149 -194 5 -358 5 -373 -1 -17 -6 -28 -35 -59 -150 -22 -79 -44 -149 -50 -156 -16 -18 -175 -21 -186 -3 -4 7 -7 18 -5 24 2 6 41 148 85 316 45 168 88 319 95 337 16 37 41 47 127 47 86 1 87 -3 44 -146 -20 -68 -36 -135 -36 -150 l0 -28 194 0 c143 0 196 3 204 13 21 25 73 251 67 289 -8 45 -45 84 -94 98 -45 12 -700 12 -754 -1z"/>
<path d="M4470 3974 c-113 -18 -208 -33 -212 -33 -14 -2 -8 -22 17 -59 30 -44 31 -66 5 -92 -17 -17 -33 -20 -113 -20 -89 0 -96 -2 -136 -30 -23 -17 -39 -35 -36 -40 4 -6 60 -10 126 -10 97 0 121 -3 125 -15 4 -8 -15 -93 -41 -188 -56 -206 -64 -262 -42 -304 30 -58 58 -63 329 -63 172 1 249 4 264 13 30 17 74 54 74 61 0 3 -60 6 -134 6 -82 0 -137 4 -141 10 -7 12 90 391 111 431 17 34 60 49 138 49 69 0 138 27 156 59 11 21 9 21 -113 21 -158 0 -158 -1 -123 113 36 118 35 127 -11 126 -21 -1 -130 -16 -243 -35z"/>
<path d="M1840 3761 c-67 -21 -123 -67 -153 -126 -8 -16 -36 -112 -62 -212 -46 -173 -47 -184 -34 -220 19 -48 66 -80 132 -88 29 -3 205 -5 393 -3 l341 3 48 30 c88 54 85 55 -228 55 -244 0 -286 2 -291 15 -8 23 4 46 31 56 13 5 122 9 241 10 141 0 228 5 247 12 93 36 134 87 170 212 43 148 29 219 -47 250 -32 13 -97 15 -401 14 -199 0 -373 -4 -387 -8z m450 -81 c13 -8 11 -27 -19 -142 -46 -183 -42 -178 -147 -178 -64 0 -86 3 -90 14 -9 22 65 289 84 304 19 14 150 16 172 2z"/>
<path d="M2836 3761 c-3 -5 1 -15 10 -22 8 -7 22 -25 30 -41 14 -27 11 -44 -56 -295 -54 -205 -68 -269 -59 -279 9 -11 50 -14 189 -14 155 0 180 2 198 18 15 12 31 54 52 142 59 235 101 375 120 394 12 13 38 21 74 24 73 6 106 -3 106 -29 0 -11 -29 -130 -65 -264 -36 -135 -65 -251 -65 -259 0 -22 20 -24 215 -23 176 2 181 3 226 29 67 40 76 54 39 62 -17 3 -33 13 -36 21 -4 8 17 105 45 215 55 211 56 235 17 279 -45 50 -51 51 -560 51 -265 0 -477 -4 -480 -9z"/>
<path d="M5132 3739 c-43 -21 -71 -43 -89 -70 -27 -41 -123 -380 -123 -435 0 -37 29 -78 73 -101 28 -16 74 -18 392 -20 221 -1 375 2 400 8 22 6 62 25 90 42 l50 32 -300 5 c-280 5 -300 6 -303 23 -2 10 4 27 14 38 16 18 33 19 234 19 257 0 299 8 364 73 47 48 77 118 96 222 14 84 1 136 -43 169 -28 20 -41 21 -410 24 l-382 3 -63 -32z m479 -49 c12 -7 19 -21 19 -38 0 -48 -60 -266 -78 -279 -24 -20 -171 -17 -178 2 -8 19 53 267 71 291 19 26 131 42 166 24z"/>
<path d="M6168 3765 c-3 -3 7 -19 23 -35 20 -20 29 -38 29 -61 0 -18 -29 -142 -65 -275 -36 -134 -65 -250 -65 -258 0 -8 8 -17 18 -19 33 -9 372 -1 382 9 6 6 37 112 70 236 70 268 84 306 117 319 27 10 123 12 147 3 23 -9 20 -29 -20 -168 -20 -68 -34 -132 -31 -141 6 -14 28 -16 205 -13 l198 3 52 34 c51 33 59 51 22 51 -35 0 -44 35 -24 106 19 73 15 135 -13 166 -41 47 -53 48 -561 48 -263 0 -481 -2 -484 -5z"/>
</g>
</svg>